<svg width="32" height="32" viewBox="0 0 32 32" fill="none" xmlns="http://www.w3.org/2000/svg">
<rect width="32" height="32" rx="7.15884" fill="#141414"/>
<path d="M23.2798 7.41016H19.4394C19.395 7.41016 19.3538 7.43372 19.3314 7.47206L13.432 17.5325C13.4099 17.5701 13.409 17.6165 13.4296 17.6549L17.0944 24.5073C17.1162 24.548 17.1586 24.5735 17.2049 24.5735H21.2247C21.3204 24.5735 21.3807 24.4706 21.3341 24.3871L17.5726 17.6556C17.5509 17.6168 17.5514 17.5695 17.5738 17.5312L23.3879 7.59872C23.4368 7.51521 23.3766 7.41016 23.2798 7.41016Z" fill="white"/>
<path d="M13.9884 13.8673H10.3408C10.2967 13.8673 10.2559 13.8905 10.2333 13.9283L7.48637 18.5233C7.43645 18.6068 7.49661 18.7128 7.5939 18.7128H11.1721C11.2157 18.7128 11.2562 18.6902 11.2789 18.653L14.0953 14.0581C14.1464 13.9746 14.0864 13.8673 13.9884 13.8673Z" fill="white"/>
</svg>
